# xmcd
#
# Track frame offsets:
# 150
# 10552
# 23382
# 33210
# 44000
# 53867
# 65895
# 77040
# 87495
# 98892
#
# Disc length: 1462 seconds
#
#
# Revision: 0
# Processed by: cddbd v1.5.1PL0 Copyright (c) Steve Scherf et al.
# Submitted via: FreeRIP 2.942 
#
DISCID=7505b40a
DTITLE=Connie Smith - All American Country
DYEAR=2003
DGENRE=Country
TTITLE0=Once A Day
TTITLE1=The Hurtin' All Over
TTITLE2=Cincinnati Ohio
TTITLE3=Burning A Hole In My Mind
TTITLE4=Love Is The Look You're Looking For
TTITLE5=Ribbon Of Darkness
TTITLE6=Louisiana Man
TTITLE7=Young Love
TTITLE8=My Heart Has A Mind Of It's Own
TTITLE9=Paper Roses
EXTD=BMG
EXTT0=
EXTT1=
EXTT2=
EXTT3=
EXTT4=
EXTT5=
EXTT6=
EXTT7=
EXTT8=
EXTT9=
PLAYORDER=
